<svg width="32" height="32" xmlns="http://www.w3.org/2000/svg">

 <g>
  <title>background</title>
  <rect fill="none" id="canvas_background" height="402" width="582" y="-1" x="-1"/>
 </g>
 <g>
  <title>Layer 1</title>
  <path id="svg_3" fill="#ffffff" d="m21,15.826c-0.98,0 -1.961,-0.373 -2.707001,-1.119c-0.390999,-0.391 -0.390999,-1.023 0,-1.414s1.023001,-0.391 1.414001,0c0.712999,0.712999 1.872999,0.712999 2.585999,0c0.391001,-0.391 1.023001,-0.391 1.414001,0s0.390999,1.023 0,1.414c-0.746,0.746 -1.727001,1.119 -2.707001,1.119z"/>
  <path id="svg_5" fill="#ffffff" d="m16,24c-1.777,0 -3.449,-0.693001 -4.707,-1.951c-0.391,-0.390999 -0.391,-1.023001 0,-1.414s1.023,-0.391001 1.414,0c1.816,1.816 4.77,1.816 6.585999,0c0.391001,-0.391001 1.023001,-0.391001 1.414001,0s0.390999,1.023001 0,1.414c-1.258001,1.257999 -2.93,1.951 -4.707001,1.951z"/>
  <path id="svg_7" fill="#ffffff" d="m16,32c-8.822,0 -16,-7.177999 -16,-16s7.178,-16 16,-16s16,7.178 16,16s-7.177999,16 -16,16zm0,-30c-7.72,0 -14,6.28 -14,14s6.28,14 14,14s14,-6.280001 14,-14s-6.280001,-14 -14,-14z"/>
  <path id="svg_9" fill="#ffffff" d="m25,12c-0.124001,0 -0.25,-0.022 -0.371,-0.071l-5,-2c-0.513,-0.205 -0.763,-0.787 -0.558001,-1.3c0.205,-0.514999 0.791,-0.764 1.300001,-0.558l5,2c0.513,0.205 0.763,0.787 0.558001,1.3c-0.157001,0.391999 -0.533001,0.629 -0.929001,0.629z"/>
  <path id="svg_11" fill="#ffffff" d="m11,15.826c-0.98,0 -1.961,-0.373 -2.707,-1.119c-0.391,-0.391 -0.391,-1.023 0,-1.414s1.023,-0.391 1.414,0c0.713,0.712999 1.873,0.712999 2.586,0c0.391,-0.391 1.023,-0.391 1.414,0s0.391,1.023 0,1.414c-0.745999,0.746 -1.727,1.119 -2.707,1.119z"/>
  <path id="svg_13" fill="#ffffff" d="m7,12c-0.396,0 -0.772,-0.237 -0.929,-0.629c-0.205,-0.513 0.045,-1.095 0.558,-1.3l5,-2c0.509,-0.206 1.095,0.043 1.3,0.558c0.205,0.513 -0.045,1.095 -0.558,1.3l-5,2c-0.121,0.049 -0.247,0.071 -0.371,0.071z"/>
 </g>
</svg>