<?xml version="1.0" encoding="UTF-8" standalone="no"?>
<!DOCTYPE svg PUBLIC "-//W3C//DTD SVG 1.1//EN" "http://www.w3.org/Graphics/SVG/1.1/DTD/svg11.dtd">
<svg width="100%" height="100%" viewBox="0 0 500 500" version="1.1" xmlns="http://www.w3.org/2000/svg" xmlns:xlink="http://www.w3.org/1999/xlink" xml:space="preserve" xmlns:serif="http://www.serif.com/" style="fill-rule:evenodd;clip-rule:evenodd;stroke-linecap:round;stroke-linejoin:round;stroke-miterlimit:1.5;">
    <rect id="Artboard1" x="0" y="0" width="500" height="500" style="fill:none;"/>
    <g id="Artboard11" serif:id="Artboard1">
        <g transform="matrix(1.41634,0,0,1.41634,643.536,574.122)">
            <g transform="matrix(1.30171,0,0,1.30171,-614.883,-438.239)">
                <path d="M161.61,125.855L258.912,150.492L356.215,125.855" style="fill:none;stroke:white;stroke-width:11.93px;"/>
            </g>
            <g transform="matrix(1.30171,0,0,1.30171,-618.997,-438.239)">
                <ellipse cx="204.797" cy="155.465" rx="23.42" ry="20.854" style="fill:white;"/>
            </g>
            <g transform="matrix(1.30171,0,0,1.30171,-469.885,-438.239)">
                <ellipse cx="204.797" cy="155.465" rx="23.42" ry="20.854" style="fill:white;"/>
            </g>
            <g transform="matrix(1.30171,0,0,1.30171,-614.883,-420.732)">
                <path d="M225.057,205.073L292.767,205.073" style="fill:none;stroke:white;stroke-width:11.93px;"/>
            </g>
        </g>
        <g transform="matrix(1.0831,0,0,1.0831,-20.7742,-20.7742)">
            <circle cx="250" cy="250" r="218.545" style="fill:none;stroke:white;stroke-width:20.31px;"/>
        </g>
    </g>
</svg>
